#!OML:ASF F:\twosubjects\two\Thursday\Session 1\justin.ASF
:FULLY-SPECIFIED
:DEGREES
352
root 9.5416 17.2998 -19.9106 -10.3785 -83.2269 17.9546
lowerback -3.04937 0.931246 -2.8154
upperback -1.95115 1.28269 1.81179
thorax -0.399075 0.667313 3.47555
lowerneck -23.9047 7.87411 -2.6754
upperneck 24.1001 11.814 0.841746
head 11.5907 5.11647 2.68266
rclavicle -2.39039e-014 -6.36111e-015
rhumerus -36.1709 -20.8111 -76.5691
rradius 25.7792
rwrist -0.85939
rhand -12.9356 9.80968
rfingers 7.12502
rthumb 13.1552 -19.7553
lclavicle -2.39039e-014 -6.36111e-015
lhumerus -33.2848 4.76639 88.6402
lradius 30.9272
lwrist -11.0629
lhand 1.97228 40.0582
lfingers 7.12502
lthumb 27.4781 68.0736
rfemur -14.8822 0.717263 23.1517
rtibia 37.8584
rfoot -27.7822 -13.136
rtoes -2.37239
lfemur -14.3858 4.40576 -22.4041
ltibia 29.5368
lfoot -20.2418 -4.86675
ltoes -6.6432
353
root 9.541 17.298 -19.906 -9.80198 -83.2031 17.4016
lowerback -3.09254 0.906608 -2.67635
upperback -1.97627 1.24614 1.85604
thorax -0.39554 0.647771 3.44253
lowerneck -23.6252 7.87002 -2.75915
upperneck 23.7789 11.8133 0.83879
head 11.4104 5.12827 2.66588
rclavicle -1.81391e-015 0
rhumerus -36.1728 -20.5381 -76.4943
rradius 25.9052
rwrist -1.09381
rhand -12.9288 9.55138
rfingers 7.12502
rthumb 13.1618 -20.0132
lclavicle -1.81391e-015 0
lhumerus -33.2417 5.35287 88.3518
lradius 30.9676
lwrist -11.4451
lhand 2.12449 40.2741
lfingers 7.12502
lthumb 27.6236 68.2663
rfemur -14.8408 0.82553 23.2002
rtibia 37.7846
rfoot -27.8435 -13.0864
rtoes -1.78755
lfemur -14.4764 4.42567 -22.3877
ltibia 29.6277
lfoot -20.2728 -4.70812
ltoes -7.33511
354
root 9.541 17.3011 -19.8989 -8.42809 -83.1799 15.9997
lowerback -3.06889 0.884086 -2.40316
upperback -1.98526 1.20791 1.91223
thorax -0.409958 0.62628 3.34497
lowerneck -23.1653 7.81452 -2.86509
upperneck 23.1888 11.7541 0.741243
head 11.1044 5.11361 2.58988
rclavicle -4.62671e-014 -2.54444e-014
rhumerus -36.2691 -19.1331 -77.0097
rradius 26.4518
rwrist -2.59139
rhand -13.3492 9.62011
rfingers 7.12502
rthumb 12.7565 -19.9702
lclavicle -4.62671e-014 -2.54444e-014
lhumerus -33.2657 5.75519 88.0594
lradius 31.1137
lwrist -11.6143
lhand 2.03 39.4173
lfingers 7.12502
lthumb 27.5333 67.4239
rfemur -14.7861 0.679858 23.3536
rtibia 37.7688
rfoot -27.8914 -12.9355
rtoes -2.35941
lfemur -14.4655 4.22509 -22.2325
ltibia 29.6392
lfoot -20.2338 -4.57291
ltoes -7.15974
355
root 9.54168 17.3046 -19.8954 -9.47555 -83.0662 16.9814
lowerback -2.99107 0.833575 -2.52467
upperback -1.95074 1.14316 1.91291
thorax -0.415739 0.595114 3.41167
lowerneck -23.021 7.7865 -2.84884
upperneck 22.9745 11.7317 0.601075
head 11.0102 5.0974 2.51883
rclavicle -2.33572e-014 -1.27222e-014
rhumerus -36.3242 -17.9752 -77.4251
rradius 26.9476
rwrist -3.77688
rhand -14.0636 9.63369
rfingers 7.12502
rthumb 12.0678 -19.9983
lclavicle -2.33572e-014 -1.27222e-014
lhumerus -33.2371 5.98237 87.811
lradius 31.3067
lwrist -11.6271
lhand 1.94896 38.6322
lfingers 7.12502
lthumb 27.4558 66.6511
rfemur -14.7223 0.419022 23.1907
rtibia 37.7865
rfoot -27.8893 -12.9117
rtoes -3.30187
lfemur -14.3825 4.10176 -22.3859
ltibia 29.6125
lfoot -20.3116 -4.64222
ltoes -7.38513
356
root 9.54022 17.3038 -19.8931 -11.2186 -82.9214 18.6719
lowerback -2.95462 0.798393 -2.77279
upperback -1.90483 1.10295 1.88476
thorax -0.390466 0.576703 3.52154
lowerneck -23.2621 7.8583 -2.74463
upperneck 23.2501 11.8244 0.582187
head 11.1641 5.12914 2.53414
rclavicle 1.28216e-014 1.98785e-014
rhumerus -36.0552 -19.084 -76.7898
rradius 26.4433
rwrist -2.59074
rhand -14.1022 9.82976
rfingers 7.12502
rthumb 12.0305 -19.8045
lclavicle 1.28216e-014 1.98785e-014
lhumerus -33.1288 6.10532 87.6247
lradius 31.457
lwrist -11.8061
lhand 2.16654 39.2785
lfingers 7.12502
lthumb 27.6638 67.2642
rfemur -14.6453 0.346238 22.9128
rtibia 37.8085
rfoot -27.9672 -12.9347
rtoes -2.61634
lfemur -14.2569 3.98475 -22.6271
ltibia 29.5804
lfoot -20.3991 -4.97214
ltoes -6.82422
357
root 9.53776 17.301 -19.8888 -10.6691 -83.0224 18.0308
lowerback -2.91966 0.86433 -2.60573
upperback -1.86222 1.18648 1.90762
thorax -0.369776 0.616276 3.45251
lowerneck -23.3752 7.91681 -2.69032
upperneck 23.4323 11.8946 0.604316
head 11.2537 5.15842 2.55786
rclavicle -1.73688e-014 8.74653e-015
rhumerus -35.8436 -20.1412 -76.199
rradius 25.9505
rwrist -1.63837
rhand -13.8742 10.0926
rfingers 7.12502
rthumb 12.2504 -19.5286
lclavicle -1.73688e-014 8.74653e-015
lhumerus -33.018 5.98567 87.4924
lradius 31.5111
lwrist -11.6236
lhand 2.2657 39.846
lfingers 7.12502
lthumb 27.7587 67.8165
rfemur -14.5808 0.389509 23.0201
rtibia 37.8704
rfoot -27.9312 -13.0774
rtoes -2.68604
lfemur -14.0828 3.88796 -22.5043
ltibia 29.4932
lfoot -20.2482 -5.01149
ltoes -5.30412
358
root 9.54 17.2995 -19.8876 -9.97339 -83.0793 17.3831
lowerback -2.94342 0.934999 -2.47576
upperback -1.90027 1.27711 1.92253
thorax -0.400025 0.661155 3.39665
lowerneck -23.2987 7.91256 -2.64564
upperneck 23.4542 11.8924 0.525696
head 11.2571 5.15016 2.52021
rclavicle -4.49999e-014 -1.03368e-014
rhumerus -35.8419 -20.1342 -76.0574
rradius 25.9884
rwrist -1.86848
rhand -14.0304 10.1373
rfingers 7.12502
rthumb 12.0998 -19.4929
lclavicle -4.49999e-014 -1.03368e-014
lhumerus -33.0115 5.78952 87.3728
lradius 31.5637
lwrist -11.2009
lhand 2.03862 39.9856
lfingers 7.12502
lthumb 27.5415 67.9909
rfemur -14.7067 0.439247 23.1422
rtibia 37.932
rfoot -27.7689 -13.331
rtoes -4.16695
lfemur -14.1597 3.84585 -22.4143
ltibia 29.4221
lfoot -20.0728 -4.97442
ltoes -3.95867
359
root 9.54495 17.3011 -19.8924 -11.4907 -82.8119 19.2348
lowerback -3.15544 0.882124 -2.83448
upperback -2.03643 1.21792 1.85215
thorax -0.423622 0.636187 3.52768
lowerneck -23.0505 7.88199 -2.31089
upperneck 23.2118 11.8379 0.0623881
head 11.1796 5.10474 2.27671
rclavicle 4.96962e-016 3.10104e-014
rhumerus -35.8687 -20.3582 -75.7901
rradius 26.0049
rwrist -1.77578
rhand -14.2927 10.1723
rfingers 7.12502
rthumb 11.8468 -19.4726
lclavicle 4.96962e-016 3.10104e-014
lhumerus -33.0745 5.69301 87.2485
lradius 31.6734
lwrist -11.0693
lhand 1.15729 40.2403
lfingers 7.12502
lthumb 26.6984 68.377
rfemur -15.0986 0.429719 22.8532
rtibia 37.9535
rfoot -27.6207 -13.5544
rtoes -5.01383
lfemur -14.5679 3.8205 -22.7345
ltibia 29.4306
lfoot -20.0682 -5.09425
ltoes -4.08643
360
root 9.54562 17.3051 -19.8921 -11.3316 -82.6523 19.198
lowerback -3.21555 0.855368 -2.88161
upperback -2.10475 1.1834 1.86103
thorax -0.458755 0.620549 3.56308
lowerneck -22.8067 7.8123 -2.16809
upperneck 22.9394 11.7434 -0.214399
head 11.0648 5.0523 2.12141
rclavicle -1.13804e-014 1.11319e-014
rhumerus -35.9225 -20.5667 -75.5085
rradius 26.0114
rwrist -1.73364
rhand -14.4241 10.1725
rfingers 7.12502
rthumb 11.7201 -19.4796
lclavicle -1.13804e-014 1.11319e-014
lhumerus -33.0683 5.56863 87.1765
lradius 31.7039
lwrist -11.0122
lhand 0.216331 40.3084
lfingers 7.12502
lthumb 25.7976 68.5792
rfemur -15.2155 0.448055 22.8179
rtibia 37.9402
rfoot -27.5923 -13.6865
rtoes -4.72197
lfemur -14.7332 3.92568 -22.7985
ltibia 29.4776
lfoot -20.0873 -5.03172
ltoes -5.92995
361
root 9.54354 17.3055 -19.8873 -9.01948 -82.7261 16.6924
lowerback -3.05582 0.886168 -2.49494
upperback -2.05661 1.21153 1.9742
thorax -0.494505 0.631221 3.45994
lowerneck -23.0085 7.80323 -2.52773
upperneck 23.22 11.7365 0.299828
head 11.1441 5.07381 2.37536
rclavicle 2.85256e-014 1.90833e-014
rhumerus -35.9097 -20.4913 -75.3798
rradius 26.0583
rwrist -1.97208
rhand -14.4511 10.0126
rfingers 7.12502
rthumb 11.6941 -19.641
lclavicle 2.85256e-014 1.90833e-014
lhumerus -33.0063 5.61131 87.0405
lradius 31.725
lwrist -10.9753
lhand 0.0498131 40.1496
lfingers 7.12502
lthumb 25.6381 68.4435
rfemur -14.9701 0.526216 23.1743
rtibia 37.9013
rfoot -27.6011 -13.7151
rtoes -4.43722
lfemur -14.5745 4.04567 -22.4589
ltibia 29.5449
lfoot -20.1013 -5.02459
ltoes -6.65459
